<?xml version="1.0" encoding="UTF-8" standalone="no"?>
<!DOCTYPE svg PUBLIC "-//W3C//DTD SVG 1.1//EN"
 "http://www.w3.org/Graphics/SVG/1.1/DTD/svg11.dtd">
<!-- Generated by graphviz version 12.1.2 (20240928.0832)
 -->
<!-- Title: G Pages: 1 -->
<svg width="808pt" height="951pt"
 viewBox="0.00 0.00 808.00 951.00" xmlns="http://www.w3.org/2000/svg" xmlns:xlink="http://www.w3.org/1999/xlink">
<g id="graph0" class="graph" transform="scale(1 1) rotate(0) translate(4 947)">
<title>G</title>
<polygon fill="white" stroke="none" points="-4,4 -4,-947 804,-947 804,4 -4,4"/>
<!-- id&#45;y42jwv0cg0001 -->
<g id="node1" class="node">
<title>id&#45;y42jwv0cg0001</title>
<ellipse fill="none" stroke="black" cx="464.5" cy="-925" rx="18" ry="18"/>
<text text-anchor="middle" x="464.5" y="-919.95" font-family="Times,serif" font-size="14.00">id&#45;y42jwv0cg0001</text>
</g>
<!-- id&#45;5fivrzdb80002 -->
<g id="node13" class="node">
<title>id&#45;5fivrzdb80002</title>
<polygon fill="none" stroke="black" points="464.5,-864 445.75,-845.25 464.5,-826.5 483.25,-845.25 464.5,-864"/>
<text text-anchor="middle" x="464.5" y="-840.2" font-family="Times,serif" font-size="14.00">id&#45;5fivrzdb80002</text>
</g>
<!-- id&#45;y42jwv0cg0001&#45;&gt;id&#45;5fivrzdb80002 -->
<g id="sid&#45;44aliu9580001" class="edge">
<title>id&#45;y42jwv0cg0001&#45;&gt;id&#45;5fivrzdb80002</title>
<path fill="none" stroke="black" d="M464.5,-906.5C464.5,-906.5 464.5,-875.99 464.5,-875.99"/>
<polygon fill="black" stroke="black" points="468,-875.99 464.5,-865.99 461,-875.99 468,-875.99"/>
</g>
<!-- id&#45;9z484k1qr0004 -->
<g id="node2" class="node">
<title>id&#45;9z484k1qr0004</title>
<polygon fill="none" stroke="black" points="177,-783.5 102,-783.5 102,-723.5 177,-723.5 177,-783.5"/>
<text text-anchor="middle" x="139.5" y="-748.45" font-family="Times,serif" font-size="14.00">id&#45;9z484k1qr0004</text>
</g>
<!-- id&#45;oqe3ats6h0006 -->
<g id="node14" class="node">
<title>id&#45;oqe3ats6h0006</title>
<polygon fill="none" stroke="black" points="130.5,-669.25 111.75,-650.5 130.5,-631.75 149.25,-650.5 130.5,-669.25"/>
<text text-anchor="middle" x="130.5" y="-645.45" font-family="Times,serif" font-size="14.00">id&#45;oqe3ats6h0006</text>
</g>
<!-- id&#45;9z484k1qr0004&#45;&gt;id&#45;oqe3ats6h0006 -->
<g id="sid&#45;4l3x8gt1k0003" class="edge">
<title>id&#45;9z484k1qr0004&#45;&gt;id&#45;oqe3ats6h0006</title>
<path fill="none" stroke="black" d="M130.5,-723.15C130.5,-723.15 130.5,-681.44 130.5,-681.44"/>
<polygon fill="black" stroke="black" points="134,-681.44 130.5,-671.44 127,-681.44 134,-681.44"/>
</g>
<!-- id&#45;pbhaqtuqm0008 -->
<g id="node3" class="node">
<title>id&#45;pbhaqtuqm0008</title>
<polygon fill="none" stroke="black" points="75,-577.5 0,-577.5 0,-517.5 75,-517.5 75,-577.5"/>
<text text-anchor="middle" x="37.5" y="-542.45" font-family="Times,serif" font-size="14.00">id&#45;pbhaqtuqm0008</text>
</g>
<!-- id&#45;m8wnislcn0007 -->
<g id="node15" class="node">
<title>id&#45;m8wnislcn0007</title>
<polygon fill="none" stroke="black" points="130.5,-463.25 111.75,-444.5 130.5,-425.75 149.25,-444.5 130.5,-463.25"/>
<text text-anchor="middle" x="130.5" y="-439.45" font-family="Times,serif" font-size="14.00">id&#45;m8wnislcn0007</text>
</g>
<!-- id&#45;pbhaqtuqm0008&#45;&gt;id&#45;m8wnislcn0007 -->
<g id="sid&#45;r1w71ymrm0005" class="edge">
<title>id&#45;pbhaqtuqm0008&#45;&gt;id&#45;m8wnislcn0007</title>
<path fill="none" stroke="black" d="M75.33,-537.5C101.07,-537.5 130.5,-537.5 130.5,-537.5 130.5,-537.5 130.5,-475.28 130.5,-475.28"/>
<polygon fill="black" stroke="black" points="134,-475.28 130.5,-465.28 127,-475.28 134,-475.28"/>
</g>
<!-- id&#45;i740e49nj0010 -->
<g id="node4" class="node">
<title>id&#45;i740e49nj0010</title>
<polygon fill="none" stroke="black" points="261,-577.5 186,-577.5 186,-517.5 261,-517.5 261,-577.5"/>
<text text-anchor="middle" x="223.5" y="-542.45" font-family="Times,serif" font-size="14.00">id&#45;i740e49nj0010</text>
</g>
<!-- id&#45;mytii6q8l0003 -->
<g id="node16" class="node">
<title>id&#45;mytii6q8l0003</title>
<polygon fill="none" stroke="black" points="446.5,-371.5 427.75,-352.75 446.5,-334 465.25,-352.75 446.5,-371.5"/>
<text text-anchor="middle" x="446.5" y="-347.7" font-family="Times,serif" font-size="14.00">id&#45;mytii6q8l0003</text>
</g>
<!-- id&#45;i740e49nj0010&#45;&gt;id&#45;mytii6q8l0003 -->
<g id="sid&#45;6sxohwu9e0009" class="edge">
<title>id&#45;i740e49nj0010&#45;&gt;id&#45;mytii6q8l0003</title>
<path fill="none" stroke="black" d="M261.24,-547.5C322.64,-547.5 437.38,-547.5 437.38,-547.5 437.38,-547.5 437.38,-374.46 437.38,-374.46"/>
<polygon fill="black" stroke="black" points="440.88,-374.46 437.38,-364.46 433.88,-374.46 440.88,-374.46"/>
</g>
<!-- id&#45;v7x6wgqwb0012 -->
<g id="node5" class="node">
<title>id&#45;v7x6wgqwb0012</title>
<polygon fill="none" stroke="black" points="354,-474.5 279,-474.5 279,-414.5 354,-414.5 354,-474.5"/>
<text text-anchor="middle" x="316.5" y="-439.45" font-family="Times,serif" font-size="14.00">id&#45;v7x6wgqwb0012</text>
</g>
<!-- id&#45;v7x6wgqwb0012&#45;&gt;id&#45;mytii6q8l0003 -->
<g id="sid&#45;6w9c6aa7v0011" class="edge">
<title>id&#45;v7x6wgqwb0012&#45;&gt;id&#45;mytii6q8l0003</title>
<path fill="none" stroke="black" d="M354.18,-444.5C388.07,-444.5 432.56,-444.5 432.56,-444.5 432.56,-444.5 432.56,-369.73 432.56,-369.73"/>
<polygon fill="black" stroke="black" points="436.06,-369.73 432.56,-359.73 429.06,-369.73 436.06,-369.73"/>
</g>
<!-- id&#45;obxdmxhkr0014 -->
<g id="node6" class="node">
<title>id&#45;obxdmxhkr0014</title>
<polygon fill="none" stroke="black" points="447,-680.5 372,-680.5 372,-620.5 447,-620.5 447,-680.5"/>
<text text-anchor="middle" x="409.5" y="-645.45" font-family="Times,serif" font-size="14.00">id&#45;obxdmxhkr0014</text>
</g>
<!-- id&#45;obxdmxhkr0014&#45;&gt;id&#45;mytii6q8l0003 -->
<g id="sid&#45;s6jyauvkb0013" class="edge">
<title>id&#45;obxdmxhkr0014&#45;&gt;id&#45;mytii6q8l0003</title>
<path fill="none" stroke="black" d="M442.19,-620.03C442.19,-620.03 442.19,-379.34 442.19,-379.34"/>
<polygon fill="black" stroke="black" points="445.69,-379.34 442.19,-369.34 438.69,-379.34 445.69,-379.34"/>
</g>
<!-- id&#45;9xlz3bnhs0016 -->
<g id="node7" class="node">
<title>id&#45;9xlz3bnhs0016</title>
<polygon fill="none" stroke="black" points="535,-577.5 460,-577.5 460,-517.5 535,-517.5 535,-577.5"/>
<text text-anchor="middle" x="497.5" y="-542.45" font-family="Times,serif" font-size="14.00">id&#45;9xlz3bnhs0016</text>
</g>
<!-- id&#45;9xlz3bnhs0016&#45;&gt;id&#45;mytii6q8l0003 -->
<g id="sid&#45;2c28o9lik0015" class="edge">
<title>id&#45;9xlz3bnhs0016&#45;&gt;id&#45;mytii6q8l0003</title>
<path fill="none" stroke="black" d="M459.76,-532.5C458.1,-532.5 457.11,-532.5 457.11,-532.5 457.11,-532.5 457.11,-372.93 457.11,-372.93"/>
<polygon fill="black" stroke="black" points="460.61,-372.93 457.11,-362.93 453.61,-372.93 460.61,-372.93"/>
</g>
<!-- id&#45;l9zp45ms70018 -->
<g id="node8" class="node">
<title>id&#45;l9zp45ms70018</title>
<polygon fill="none" stroke="black" points="614,-474.5 539,-474.5 539,-414.5 614,-414.5 614,-474.5"/>
<text text-anchor="middle" x="576.5" y="-439.45" font-family="Times,serif" font-size="14.00">id&#45;l9zp45ms70018</text>
</g>
<!-- id&#45;l9zp45ms70018&#45;&gt;id&#45;mytii6q8l0003 -->
<g id="sid&#45;sqwt8l27d0017" class="edge">
<title>id&#45;l9zp45ms70018&#45;&gt;id&#45;mytii6q8l0003</title>
<path fill="none" stroke="black" d="M538.53,-429.5C504.05,-429.5 458.56,-429.5 458.56,-429.5 458.56,-429.5 458.56,-371.62 458.56,-371.62"/>
<polygon fill="black" stroke="black" points="462.06,-371.62 458.56,-361.62 455.06,-371.62 462.06,-371.62"/>
</g>
<!-- id&#45;wl4lcc3200020 -->
<g id="node9" class="node">
<title>id&#45;wl4lcc3200020</title>
<polygon fill="none" stroke="black" points="707,-783.5 632,-783.5 632,-723.5 707,-723.5 707,-783.5"/>
<text text-anchor="middle" x="669.5" y="-748.45" font-family="Times,serif" font-size="14.00">id&#45;wl4lcc3200020</text>
</g>
<!-- id&#45;wl4lcc3200020&#45;&gt;id&#45;mytii6q8l0003 -->
<g id="sid&#45;w5dn33ud40019" class="edge">
<title>id&#45;wl4lcc3200020&#45;&gt;id&#45;mytii6q8l0003</title>
<path fill="none" stroke="black" d="M631.51,-738.5C569.71,-738.5 454.22,-738.5 454.22,-738.5 454.22,-738.5 454.22,-375.81 454.22,-375.81"/>
<polygon fill="black" stroke="black" points="457.72,-375.81 454.22,-365.81 450.72,-375.81 457.72,-375.81"/>
</g>
<!-- id&#45;8c7srco8q0022 -->
<g id="node10" class="node">
<title>id&#45;8c7srco8q0022</title>
<polygon fill="none" stroke="black" points="800,-680.5 725,-680.5 725,-620.5 800,-620.5 800,-680.5"/>
<text text-anchor="middle" x="762.5" y="-645.45" font-family="Times,serif" font-size="14.00">id&#45;8c7srco8q0022</text>
</g>
<!-- id&#45;8c7srco8q0022&#45;&gt;id&#45;mytii6q8l0003 -->
<g id="sid&#45;zvnyjd84y0021" class="edge">
<title>id&#45;8c7srco8q0022&#45;&gt;id&#45;mytii6q8l0003</title>
<path fill="none" stroke="black" d="M724.57,-635.5C642.47,-635.5 455.67,-635.5 455.67,-635.5 455.67,-635.5 455.67,-374.33 455.67,-374.33"/>
<polygon fill="black" stroke="black" points="459.17,-374.33 455.67,-364.33 452.17,-374.33 459.17,-374.33"/>
</g>
<!-- id&#45;9h594bms50025 -->
<g id="node11" class="node">
<title>id&#45;9h594bms50025</title>
<polygon fill="none" stroke="black" points="438,-210.5 363,-210.5 363,-150.5 438,-150.5 438,-210.5"/>
<text text-anchor="middle" x="400.5" y="-175.45" font-family="Times,serif" font-size="14.00">id&#45;9h594bms50025</text>
</g>
<!-- id&#45;4njzvbh7s0024 -->
<g id="node18" class="node">
<title>id&#45;4njzvbh7s0024</title>
<polygon fill="none" stroke="black" points="446.5,-107.5 427.75,-88.75 446.5,-70 465.25,-88.75 446.5,-107.5"/>
<text text-anchor="middle" x="446.5" y="-83.7" font-family="Times,serif" font-size="14.00">id&#45;4njzvbh7s0024</text>
</g>
<!-- id&#45;9h594bms50025&#45;&gt;id&#45;4njzvbh7s0024 -->
<g id="sid&#45;qmnjo7xow0024" class="edge">
<title>id&#45;9h594bms50025&#45;&gt;id&#45;4njzvbh7s0024</title>
<path fill="none" stroke="black" d="M432.88,-150.2C432.88,-150.2 432.88,-105.77 432.88,-105.77"/>
<polygon fill="black" stroke="black" points="436.38,-105.77 432.88,-95.77 429.38,-105.77 436.38,-105.77"/>
</g>
<!-- id&#45;rvu0jgusl0027 -->
<g id="node12" class="node">
<title>id&#45;rvu0jgusl0027</title>
<ellipse fill="none" stroke="black" cx="446.5" cy="-13.5" rx="13.5" ry="13.5"/>
<text text-anchor="middle" x="446.5" y="-8.45" font-family="Times,serif" font-size="14.00">id&#45;rvu0jgusl0027</text>
</g>
<!-- id&#45;5fivrzdb80002&#45;&gt;id&#45;9z484k1qr0004 -->
<g id="sid&#45;ni01ocbbs0002" class="edge">
<title>id&#45;5fivrzdb80002&#45;&gt;id&#45;9z484k1qr0004</title>
<path fill="none" stroke="black" d="M448.44,-841.95C448.44,-827.26 448.44,-768.5 448.44,-768.5 448.44,-768.5 188.9,-768.5 188.9,-768.5"/>
<polygon fill="black" stroke="black" points="188.9,-765 178.9,-768.5 188.9,-772 188.9,-765"/>
</g>
<!-- id&#45;5fivrzdb80002&#45;&gt;id&#45;i740e49nj0010 -->
<g id="sid&#45;mx7feupw10008" class="edge">
<title>id&#45;5fivrzdb80002&#45;&gt;id&#45;i740e49nj0010</title>
<path fill="none" stroke="black" d="M451.33,-839.08C451.33,-797.73 451.33,-562.5 451.33,-562.5 451.33,-562.5 272.89,-562.5 272.89,-562.5"/>
<polygon fill="black" stroke="black" points="272.89,-559 262.89,-562.5 272.89,-566 272.89,-559"/>
</g>
<!-- id&#45;5fivrzdb80002&#45;&gt;id&#45;v7x6wgqwb0012 -->
<g id="sid&#45;lqzytmxcq0010" class="edge">
<title>id&#45;5fivrzdb80002&#45;&gt;id&#45;v7x6wgqwb0012</title>
<path fill="none" stroke="black" d="M452.78,-837.54C452.78,-783.18 452.78,-459.5 452.78,-459.5 452.78,-459.5 365.97,-459.5 365.97,-459.5"/>
<polygon fill="black" stroke="black" points="365.97,-456 355.97,-459.5 365.97,-463 365.97,-456"/>
</g>
<!-- id&#45;5fivrzdb80002&#45;&gt;id&#45;obxdmxhkr0014 -->
<g id="sid&#45;wp53yavuh0012" class="edge">
<title>id&#45;5fivrzdb80002&#45;&gt;id&#45;obxdmxhkr0014</title>
<path fill="none" stroke="black" d="M449.89,-840.44C449.89,-810.45 449.89,-650.5 449.89,-650.5 449.89,-650.5 449.62,-650.5 449.62,-650.5"/>
<polygon fill="black" stroke="black" points="458.75,-647 448.75,-650.5 458.75,-654 458.75,-647"/>
</g>
<!-- id&#45;5fivrzdb80002&#45;&gt;id&#45;9xlz3bnhs0016 -->
<g id="sid&#45;bjc1h8e8l0014" class="edge">
<title>id&#45;5fivrzdb80002&#45;&gt;id&#45;9xlz3bnhs0016</title>
<path fill="none" stroke="black" d="M465.81,-827.52C465.81,-827.52 465.81,-589.39 465.81,-589.39"/>
<polygon fill="black" stroke="black" points="469.31,-589.39 465.81,-579.39 462.31,-589.39 469.31,-589.39"/>
</g>
<!-- id&#45;5fivrzdb80002&#45;&gt;id&#45;l9zp45ms70018 -->
<g id="sid&#45;8kl0m10yl0016" class="edge">
<title>id&#45;5fivrzdb80002&#45;&gt;id&#45;l9zp45ms70018</title>
<path fill="none" stroke="black" d="M483.75,-845.25C515.78,-845.25 576.5,-845.25 576.5,-845.25 576.5,-845.25 576.5,-486.46 576.5,-486.46"/>
<polygon fill="black" stroke="black" points="580,-486.46 576.5,-476.46 573,-486.46 580,-486.46"/>
</g>
<!-- id&#45;5fivrzdb80002&#45;&gt;id&#45;wl4lcc3200020 -->
<g id="sid&#45;7bd3shukm0018" class="edge">
<title>id&#45;5fivrzdb80002&#45;&gt;id&#45;wl4lcc3200020</title>
<path fill="none" stroke="black" d="M477.44,-838.94C477.44,-818.21 477.44,-753.5 477.44,-753.5 477.44,-753.5 620.04,-753.5 620.04,-753.5"/>
<polygon fill="black" stroke="black" points="620.04,-757 630.04,-753.5 620.04,-750 620.04,-757"/>
</g>
<!-- id&#45;5fivrzdb80002&#45;&gt;id&#45;8c7srco8q0022 -->
<g id="sid&#45;lo5un1r3w0020" class="edge">
<title>id&#45;5fivrzdb80002&#45;&gt;id&#45;8c7srco8q0022</title>
<path fill="none" stroke="black" d="M471.62,-833.18C471.62,-792.87 471.62,-665.5 471.62,-665.5 471.62,-665.5 713.26,-665.5 713.26,-665.5"/>
<polygon fill="black" stroke="black" points="713.26,-669 723.26,-665.5 713.26,-662 713.26,-669"/>
</g>
<!-- id&#45;oqe3ats6h0006&#45;&gt;id&#45;pbhaqtuqm0008 -->
<g id="sid&#45;2b0e6ntea0004" class="edge">
<title>id&#45;oqe3ats6h0006&#45;&gt;id&#45;pbhaqtuqm0008</title>
<path fill="none" stroke="black" d="M121.12,-640.55C121.12,-616.56 121.12,-557.5 121.12,-557.5 121.12,-557.5 86.91,-557.5 86.91,-557.5"/>
<polygon fill="black" stroke="black" points="86.91,-554 76.91,-557.5 86.91,-561 86.91,-554"/>
</g>
<!-- id&#45;oqe3ats6h0006&#45;&gt;id&#45;m8wnislcn0007 -->
<g id="sid&#45;86uxaspc00006" class="edge">
<title>id&#45;oqe3ats6h0006&#45;&gt;id&#45;m8wnislcn0007</title>
<path fill="none" stroke="black" d="M139.88,-640.56C139.88,-640.56 139.88,-465.85 139.88,-465.85"/>
<polygon fill="black" stroke="black" points="143.38,-465.85 139.88,-455.85 136.38,-465.85 143.38,-465.85"/>
</g>
<!-- id&#45;m8wnislcn0007&#45;&gt;id&#45;mytii6q8l0003 -->
<g id="sid&#45;gkri9o0bz0007" class="edge">
<title>id&#45;m8wnislcn0007&#45;&gt;id&#45;mytii6q8l0003</title>
<path fill="none" stroke="black" d="M130.5,-425.49C130.5,-398.62 130.5,-352.75 130.5,-352.75 130.5,-352.75 415.69,-352.75 415.69,-352.75"/>
<polygon fill="black" stroke="black" points="415.69,-356.25 425.69,-352.75 415.69,-349.25 415.69,-356.25"/>
</g>
<!-- id&#45;pgybarlhn0023 -->
<g id="node17" class="node">
<title>id&#45;pgybarlhn0023</title>
<polygon fill="none" stroke="black" points="446.5,-291 427.75,-272.25 446.5,-253.5 465.25,-272.25 446.5,-291"/>
<text text-anchor="middle" x="446.5" y="-267.2" font-family="Times,serif" font-size="14.00">id&#45;pgybarlhn0023</text>
</g>
<!-- id&#45;mytii6q8l0003&#45;&gt;id&#45;pgybarlhn0023 -->
<g id="sid&#45;61qwd2iy10022" class="edge">
<title>id&#45;mytii6q8l0003&#45;&gt;id&#45;pgybarlhn0023</title>
<path fill="none" stroke="black" d="M446.5,-333.67C446.5,-333.67 446.5,-302.98 446.5,-302.98"/>
<polygon fill="black" stroke="black" points="450,-302.98 446.5,-292.98 443,-302.98 450,-302.98"/>
</g>
<!-- id&#45;pgybarlhn0023&#45;&gt;id&#45;9h594bms50025 -->
<g id="sid&#45;61u6oetzk0023" class="edge">
<title>id&#45;pgybarlhn0023&#45;&gt;id&#45;9h594bms50025</title>
<path fill="none" stroke="black" d="M432.88,-266.51C432.88,-266.51 432.88,-222.22 432.88,-222.22"/>
<polygon fill="black" stroke="black" points="436.38,-222.22 432.88,-212.22 429.38,-222.22 436.38,-222.22"/>
</g>
<!-- id&#45;pgybarlhn0023&#45;&gt;id&#45;4njzvbh7s0024 -->
<g id="sid&#45;wvxpb2y6q0025" class="edge">
<title>id&#45;pgybarlhn0023&#45;&gt;id&#45;4njzvbh7s0024</title>
<path fill="none" stroke="black" d="M451.62,-258.16C451.62,-258.16 451.62,-114.41 451.62,-114.41"/>
<polygon fill="black" stroke="black" points="455.13,-114.41 451.63,-104.41 448.13,-114.41 455.13,-114.41"/>
</g>
<!-- id&#45;4njzvbh7s0024&#45;&gt;id&#45;rvu0jgusl0027 -->
<g id="sid&#45;m5firlutb0026" class="edge">
<title>id&#45;4njzvbh7s0024&#45;&gt;id&#45;rvu0jgusl0027</title>
<path fill="none" stroke="black" d="M446.5,-69.37C446.5,-69.37 446.5,-38.63 446.5,-38.63"/>
<polygon fill="black" stroke="black" points="450,-38.63 446.5,-28.63 443,-38.63 450,-38.63"/>
</g>
</g>
</svg>
